<mxfile host="65bd71144e">
    <diagram id="K9tdpp2gKXIHnt1HSWHF" name="Página-1">
        <mxGraphModel dx="1163" dy="2616" grid="1" gridSize="10" guides="1" tooltips="1" connect="1" arrows="1" fold="1" page="1" pageScale="1" pageWidth="1600" pageHeight="900" background="#ffffff" math="0" shadow="0">
            <root>
                <mxCell id="0"/>
                <mxCell id="1" parent="0"/>
                <UserObject label="" lucidchartObjectId="sv5FRH7WopwM" id="27">
                    <mxCell style="html=1;jettySize=18;whiteSpace=wrap;fontSize=13.3;fontColor=#333333;fontStyle=1;strokeColor=#5E5E5E;strokeWidth=1.5;rounded=1;arcSize=12;edgeStyle=orthogonalEdgeStyle;startArrow=none;endArrow=block;endFill=1;exitX=0.009;exitY=0.5;exitPerimeter=0;entryX=0.009;entryY=0.5;entryPerimeter=0;" parent="1" edge="1">
                        <mxGeometry width="100" height="100" relative="1" as="geometry">
                            <Array as="points">
                                <mxPoint x="735" y="1425"/>
                                <mxPoint x="735" y="1114"/>
                            </Array>
                            <mxPoint x="836.1699999999992" y="1113.999999999999" as="targetPoint"/>
                        </mxGeometry>
                    </mxCell>
                </UserObject>
                <mxCell id="28" value="Não" style="text;html=1;resizable=0;labelBackgroundColor=default;align=center;verticalAlign=middle;fontStyle=1;fontColor=#333333;fontSize=13.3;" parent="27" vertex="1">
                    <mxGeometry relative="1" as="geometry"/>
                </mxCell>
                <UserObject label="QUESTÃO 02 - AdemarROV" lucidchartObjectId="hB5FAly2sNbj" id="34">
                    <mxCell style="html=1;overflow=block;blockSpacing=1;whiteSpace=wrap;fontSize=16.7;fontColor=#333333;spacing=0;strokeColor=#5e5e5e;strokeOpacity=100;rounded=1;absoluteArcSize=1;arcSize=9;strokeWidth=2.3;fillColor=none;" parent="1" vertex="1">
                        <mxGeometry x="60" y="-1780" width="180" height="45" as="geometry"/>
                    </mxCell>
                </UserObject>
                <mxCell id="46" value="" style="edgeStyle=none;html=1;" parent="1" source="35" target="45" edge="1">
                    <mxGeometry relative="1" as="geometry"/>
                </mxCell>
                <UserObject label="INICIO" lucidchartObjectId="5I5FYMsfA5z-" id="35">
                    <mxCell style="html=1;overflow=block;blockSpacing=1;whiteSpace=wrap;ellipse;fontSize=13;spacing=3.8;strokeColor=#5e5e5e;strokeOpacity=100;rounded=1;absoluteArcSize=1;arcSize=9;strokeWidth=2.3;" parent="1" vertex="1">
                        <mxGeometry x="657.0000000000001" y="-1735" width="120" height="90" as="geometry"/>
                    </mxCell>
                </UserObject>
                <UserObject label="numero_jogador" lucidchartObjectId="1J5F0nnQ0K5u" id="36">
                    <mxCell style="html=1;overflow=block;blockSpacing=1;whiteSpace=wrap;shape=manualInput;size=15;fontSize=16.7;fontColor=#333333;spacing=3.8;strokeColor=#5e5e5e;strokeOpacity=100;rounded=1;absoluteArcSize=1;arcSize=9;strokeWidth=2.3;" parent="1" vertex="1">
                        <mxGeometry x="650.0000000000001" y="-1481.17" width="135" height="90" as="geometry"/>
                    </mxCell>
                </UserObject>
                <UserObject label="" lucidchartObjectId="GV5F9Ojk9Qdn" id="38">
                    <mxCell style="html=1;jettySize=18;whiteSpace=wrap;fontSize=13;strokeColor=#5E5E5E;strokeWidth=1.5;rounded=1;arcSize=12;edgeStyle=orthogonalEdgeStyle;startArrow=none;endArrow=block;endFill=1;exitX=0.5;exitY=1.012;exitPerimeter=0;entryX=0.5;entryY=0.003;entryPerimeter=0;" parent="1" source="36" target="39" edge="1">
                        <mxGeometry width="100" height="100" relative="1" as="geometry">
                            <Array as="points"/>
                        </mxGeometry>
                    </mxCell>
                </UserObject>
                <UserObject label="numero_jogador = numero_aleatorio" lucidchartObjectId="LV5FCl.5Tn~W" id="39">
                    <mxCell style="html=1;overflow=block;blockSpacing=1;whiteSpace=wrap;rhombus;fontSize=16.7;fontColor=#333333;spacing=3.8;strokeColor=#5E5E5E;rounded=1;absoluteArcSize=1;arcSize=9;strokeWidth=2.3;" parent="1" vertex="1">
                        <mxGeometry x="620.0000000000001" y="-1346.17" width="195" height="146" as="geometry"/>
                    </mxCell>
                </UserObject>
                <UserObject label="" lucidchartObjectId="MY5FD8FA1xiy" id="40">
                    <mxCell style="html=1;jettySize=18;whiteSpace=wrap;fontSize=13.3;fontColor=#333333;fontStyle=1;align=left;strokeColor=#008a0e;strokeOpacity=100;strokeWidth=1.5;rounded=1;arcSize=12;edgeStyle=orthogonalEdgeStyle;startArrow=none;endArrow=block;endFill=1;exitX=0.5;exitY=0.997;exitPerimeter=0;entryX=0.5;entryY=-0.013;entryPerimeter=0;" parent="1" source="39" target="44" edge="1">
                        <mxGeometry width="100" height="100" relative="1" as="geometry">
                            <Array as="points"/>
                        </mxGeometry>
                    </mxCell>
                </UserObject>
                <mxCell id="41" value="Sim" style="text;html=1;resizable=0;labelBackgroundColor=default;align=center;verticalAlign=middle;fontStyle=1;fontColor=#333333;fontSize=13.3;" parent="40" vertex="1">
                    <mxGeometry relative="1" as="geometry"/>
                </mxCell>
                <UserObject label="" lucidchartObjectId="OY5FPpIYKYkT" id="42">
                    <mxCell style="html=1;jettySize=18;whiteSpace=wrap;fontSize=13.3;fontColor=#333333;fontStyle=1;align=left;strokeColor=#FF3333;strokeOpacity=100;strokeWidth=1.5;rounded=1;arcSize=12;edgeStyle=orthogonalEdgeStyle;startArrow=none;endArrow=block;endFill=1;exitX=0.006;exitY=0.5;exitPerimeter=0;entryX=0;entryY=0.556;entryDx=0;entryDy=0;entryPerimeter=0;" parent="1" source="39" target="36" edge="1">
                        <mxGeometry width="100" height="100" relative="1" as="geometry">
                            <Array as="points">
                                <mxPoint x="600" y="-1273.17"/>
                                <mxPoint x="600" y="-1368.17"/>
                                <mxPoint x="602" y="-1368.17"/>
                                <mxPoint x="602" y="-1431.17"/>
                            </Array>
                            <mxPoint x="620.0000000000001" y="-1401.17" as="targetPoint"/>
                        </mxGeometry>
                    </mxCell>
                </UserObject>
                <mxCell id="43" value="Não" style="text;html=1;resizable=0;labelBackgroundColor=default;align=center;verticalAlign=middle;fontStyle=1;fontColor=#333333;fontSize=13.3;" parent="42" vertex="1">
                    <mxGeometry relative="1" as="geometry"/>
                </mxCell>
                <UserObject label="FIM" lucidchartObjectId="l05Fz1JeSQTq" id="44">
                    <mxCell style="html=1;overflow=block;blockSpacing=1;whiteSpace=wrap;ellipse;fontSize=13;spacing=3.8;strokeColor=#5e5e5e;strokeOpacity=100;rounded=1;absoluteArcSize=1;arcSize=9;strokeWidth=2.3;" parent="1" vertex="1">
                        <mxGeometry x="657.0000000000001" y="-1106.17" width="120" height="90" as="geometry"/>
                    </mxCell>
                </UserObject>
                <mxCell id="47" value="" style="edgeStyle=none;html=1;" parent="1" source="45" target="36" edge="1">
                    <mxGeometry relative="1" as="geometry"/>
                </mxCell>
                <mxCell id="45" value="num_ale &amp;lt;- aleatorio 1,100" style="whiteSpace=wrap;html=1;fontSize=13;strokeColor=#5e5e5e;spacing=3.8;rounded=1;arcSize=9;strokeWidth=2.3;" parent="1" vertex="1">
                    <mxGeometry x="657.0000000000001" y="-1600" width="120" height="60" as="geometry"/>
                </mxCell>
            </root>
        </mxGraphModel>
    </diagram>
</mxfile>